<?xml version="1.0" encoding="UTF-8"?>
<svg xmlns="http://www.w3.org/2000/svg" xmlns:xlink="http://www.w3.org/1999/xlink" width="16pt" height="16pt" viewBox="0 0 16 16" version="1.1">
<g id="surface1">
<path style=" stroke:none;fill-rule:nonzero;fill:#BAE0BD;fill-opacity:1;" d="M 14.5 7.5 C 14.5 11.367188 11.367188 14.5 7.5 14.5 C 3.632813 14.5 0.5 11.367188 0.5 7.5 C 0.5 3.632813 3.632813 0.5 7.5 0.5 C 11.367188 0.5 14.5 3.632813 14.5 7.5 Z "/>
<path style=" stroke:none;fill-rule:nonzero;fill:#5E9C76;fill-opacity:1;" d="M 7.5 1 C 11.101563 1 14 3.898438 14 7.5 C 14 11.101563 11.101563 14 7.5 14 C 3.898438 14 1 11.101563 1 7.5 C 1 3.898438 3.898438 1 7.5 1 M 7.5 0 C 3.398438 0 0 3.398438 0 7.5 C 0 11.601563 3.398438 15 7.5 15 C 11.601563 15 15 11.601563 15 7.5 C 15 3.398438 11.601563 0 7.5 0 Z "/>
<path style=" stroke:none;fill-rule:nonzero;fill:#5E9C76;fill-opacity:1;" d="M 6.300781 10.5 L 3.699219 7.898438 L 4.398438 7.199219 L 6.300781 9.101563 L 11.199219 4.300781 L 11.898438 5 Z "/>
</g>
</svg>
