<?xml version="1.0" encoding="utf-8"?>
<!-- Generator: Adobe Illustrator 16.0.0, SVG Export Plug-In . SVG Version: 6.00 Build 0)  -->
<!DOCTYPE svg PUBLIC "-//W3C//DTD SVG 1.1//EN" "http://www.w3.org/Graphics/SVG/1.1/DTD/svg11.dtd">
<svg version="1.1" id="aa03ddf9-f8f2-4819-a4ce-be9b0a220741"
	 xmlns="http://www.w3.org/2000/svg" xmlns:xlink="http://www.w3.org/1999/xlink" x="0px" y="0px" width="1119.609px"
	 height="699px" viewBox="0 0 1119.609 699" enable-background="new 0 0 1119.609 699" xml:space="preserve">
<title>server down</title>
<g>
	<ellipse fill="#3F3D56" cx="766.305" cy="554.156" rx="283" ry="38.5"/>
	<ellipse fill="#3F3D56" cx="240.305" cy="539.156" rx="170" ry="23.127"/>
	<path fill="#2F2E41" d="M708.4,456.896l-7.878,50.295c0,0-38.782,20.602-11.514,21.209c27.269,0.605,155.733,0,155.733,0
		s24.845,0-14.543-21.816l-7.878-52.719L708.4,456.896z"/>
	<path opacity="0.1" enable-background="new    " d="M683.523,527.854c6.193-5.51,16.999-11.252,16.999-11.252l7.878-50.295
		l113.921,0.107l7.878,49.582c9.185,5.086,14.875,8.986,18.203,11.979c5.06-1.154,10.588-5.443-18.203-21.391l-7.878-52.719
		L708.4,456.896l-7.878,50.295C700.522,507.191,667.935,524.506,683.523,527.854z"/>
	<path fill="#2F2E41" d="M526.174,106.344h477.162c9.966,0,18.045,8.08,18.045,18.046v321.428c0,9.967-8.079,18.047-18.045,18.047
		H526.174c-9.967,0-18.046-8.08-18.046-18.047V124.39C508.128,114.424,516.207,106.344,526.174,106.344z"/>
	<rect x="525.398" y="125.432" fill="#3F3D56" width="478.713" height="267.837"/>
	<circle fill="#F2F2F2" cx="764.755" cy="116.949" r="3.03"/>
	<path fill="#2F2E41" d="M1021.381,414.479v31.34c0.002,9.965-8.075,18.045-18.041,18.045c-0.001,0-0.003,0-0.004,0H526.174
		c-9.965,0.002-18.044-8.074-18.046-18.041c0,0,0-0.002,0-0.004v-31.34H1021.381z"/>
	<polygon fill="#2F2E41" points="898.674,561.121 898.674,567.182 572.663,567.182 572.663,562.334 573.112,561.121 
		581.147,539.307 892.008,539.307 	"/>
	<path fill="#2F2E41" d="M1024.133,555.189c-0.594,2.539-2.836,5.217-7.902,7.75c-18.179,9.09-55.143-2.424-55.143-2.424
		s-28.48-4.848-28.48-17.572c0.8-0.549,1.634-1.045,2.496-1.484c7.644-4.045,32.985-14.021,77.918,0.422
		c3.311,1.039,6.268,2.977,8.541,5.598C1023.384,549.609,1024.812,552.313,1024.133,555.189z"/>
	<path opacity="0.1" enable-background="new    " d="M1024.133,555.189c-22.251,8.525-42.085,9.162-62.439-4.975
		c-10.265-7.127-19.591-8.891-26.59-8.756c7.644-4.045,32.984-14.021,77.918,0.422c3.311,1.039,6.268,2.977,8.541,5.598
		C1023.384,549.609,1024.812,552.313,1024.133,555.189z"/>
	<ellipse fill="#F2F2F2" cx="996.233" cy="547.791" rx="7.878" ry="2.424"/>
	<circle fill="#F2F2F2" cx="764.755" cy="439.322" r="11.514"/>
	<polygon opacity="0.1" enable-background="new    " points="898.674,561.121 898.674,567.182 572.663,567.182 572.663,562.334 
		573.112,561.121 	"/>
	<circle fill="#2F2E41" cx="246.305" cy="431.656" r="79"/>
	<rect x="210.305" y="493.656" fill="#2F2E41" width="24" height="43"/>
	<rect x="258.305" y="493.656" fill="#2F2E41" width="24" height="43"/>
	<ellipse fill="#2F2E41" cx="230.305" cy="537.156" rx="20" ry="7.5"/>
	<ellipse fill="#2F2E41" cx="278.305" cy="536.156" rx="20" ry="7.5"/>
	<circle fill="#FFFFFF" cx="248.305" cy="411.656" r="27"/>
	<circle fill="#3F3D56" cx="248.305" cy="411.656" r="9"/>
	<path fill="#6C63FF" d="M169.672,358.188c-6.379-28.567,14.012-57.433,45.544-64.474s62.266,10.41,68.645,38.978
		c6.379,28.567-14.519,39.104-46.051,46.145S176.051,386.756,169.672,358.188z"/>
	
		<ellipse transform="matrix(-0.3935 -0.9193 0.9193 -0.3935 67.8141 853.7363)" fill="#2F2E41" cx="315.52" cy="404.499" rx="12.4" ry="39.499"/>
	
		<ellipse transform="matrix(-0.3935 -0.9193 0.9193 -0.3935 -187.1489 791.5324)" fill="#2F2E41" cx="167.52" cy="457.499" rx="12.4" ry="39.499"/>
	<path fill="#FFFFFF" d="M292.305,454.656c0,7.732-19.908,23-42,23s-43-14.268-43-22s20.908-6,43-6S292.305,446.924,292.305,454.656
		z"/>
</g>
<circle fill="#FFFFFF" cx="764.754" cy="264.5" r="85"/>
<g>
	<path fill="#3F3D56" d="M783.76,304.383l-10.129-14.433c-4.149-5.57-6.805-9.704-9.954-14.32h-0.332
		c-2.323,4.616-5.147,8.75-8.636,14.32l-9.29,14.433h-28.883l32.369-40.354l-31.206-39.413h29.042l9.799,14.562
		c3.318,4.855,5.805,8.758,8.462,13.258h0.33c2.655-5.098,4.818-8.644,7.637-13.258l9.46-14.562h28.881l-31.538,38.939l33.2,40.828
		H783.76z"/>
</g>
</svg>
