<?xml version="1.0" encoding="UTF-8"?>
<svg xmlns="http://www.w3.org/2000/svg" xmlns:xlink="http://www.w3.org/1999/xlink" width="16pt" height="16pt" viewBox="0 0 16 16" version="1.1">
<g id="surface1">
<path style=" stroke:none;fill-rule:nonzero;fill:#FFEEA3;fill-opacity:1;" d="M 14.5 7.5 C 14.5 11.367188 11.367188 14.5 7.5 14.5 C 3.632813 14.5 0.5 11.367188 0.5 7.5 C 0.5 3.632813 3.632813 0.5 7.5 0.5 C 11.367188 0.5 14.5 3.632813 14.5 7.5 Z "/>
<path style=" stroke:none;fill-rule:nonzero;fill:#BA9B48;fill-opacity:1;" d="M 7.5 1 C 11.085938 1 14 3.914063 14 7.5 C 14 11.085938 11.085938 14 7.5 14 C 3.914063 14 1 11.085938 1 7.5 C 1 3.914063 3.914063 1 7.5 1 M 7.5 0 C 3.359375 0 0 3.359375 0 7.5 C 0 11.640625 3.359375 15 7.5 15 C 11.640625 15 15 11.640625 15 7.5 C 15 3.359375 11.640625 0 7.5 0 Z "/>
<path style=" stroke:none;fill-rule:nonzero;fill:#36404D;fill-opacity:1;" d="M 8.171875 4.5 C 8.171875 4.871094 7.871094 5.171875 7.5 5.171875 C 7.128906 5.171875 6.828125 4.871094 6.828125 4.5 C 6.828125 4.128906 7.128906 3.828125 7.5 3.828125 C 7.871094 3.828125 8.171875 4.128906 8.171875 4.5 Z "/>
<path style=" stroke:none;fill-rule:nonzero;fill:#36404D;fill-opacity:1;" d="M 8 10 L 8 6 L 6.328125 6 L 6.328125 7 L 7 7 L 7 10 L 6 10 L 6 11 L 9 11 L 9 10 Z "/>
</g>
</svg>
